<svg width="371" height="46" viewBox="0 0 371 46" fill="none" xmlns="http://www.w3.org/2000/svg">
<path d="M6.72656 9.30469V22.7578H13.4531C14.375 22.7578 15.2422 22.5859 16.0547 22.2422C16.8672 21.8828 17.5781 21.3984 18.1875 20.7891C18.7969 20.1797 19.2734 19.4688 19.6172 18.6562C19.9766 17.8281 20.1562 16.9531 20.1562 16.0312C20.1562 15.1094 19.9766 14.2422 19.6172 13.4297C19.2734 12.6016 18.7969 11.8828 18.1875 11.2734C17.5781 10.6641 16.8672 10.1875 16.0547 9.84375C15.2422 9.48438 14.375 9.30469 13.4531 9.30469H6.72656ZM6.72656 36.1875H0V2.57812H13.4531C14.6875 2.57812 15.875 2.74219 17.0156 3.07031C18.1562 3.38281 19.2188 3.83594 20.2031 4.42969C21.2031 5.00781 22.1094 5.71094 22.9219 6.53906C23.75 7.35156 24.4531 8.25781 25.0312 9.25781C25.625 10.2578 26.0781 11.3281 26.3906 12.4688C26.7188 13.6094 26.8828 14.7969 26.8828 16.0312C26.8828 17.875 26.5312 19.6172 25.8281 21.2578C25.125 22.8828 24.1641 24.3047 22.9453 25.5234C21.7266 26.7422 20.2969 27.7031 18.6562 28.4062C17.0312 29.1094 15.2969 29.4609 13.4531 29.4609H6.72656V36.1875ZM37.7109 4.26562C37.7109 4.85937 37.5938 5.41406 37.3594 5.92969C37.1406 6.44531 36.8359 6.89844 36.4453 7.28906C36.0547 7.66406 35.5938 7.96875 35.0625 8.20312C34.5469 8.42188 33.9922 8.53125 33.3984 8.53125C32.8047 8.53125 32.2422 8.42188 31.7109 8.20312C31.1953 7.96875 30.7422 7.66406 30.3516 7.28906C29.9766 6.89844 29.6719 6.44531 29.4375 5.92969C29.2188 5.41406 29.1094 4.85937 29.1094 4.26562C29.1094 3.6875 29.2188 3.14062 29.4375 2.625C29.6719 2.09375 29.9766 1.64062 30.3516 1.26562C30.7422 0.875 31.1953 0.570312 31.7109 0.351562C32.2422 0.117188 32.8047 0 33.3984 0C33.9922 0 34.5469 0.117188 35.0625 0.351562C35.5938 0.570312 36.0547 0.875 36.4453 1.26562C36.8359 1.64062 37.1406 2.09375 37.3594 2.625C37.5938 3.14062 37.7109 3.6875 37.7109 4.26562ZM36.6094 36.1875H30.1641V11.0859H36.6094V36.1875ZM47.9062 36.1875H41.5078V11.0859H43.0547L45.1641 13.5234C46.1953 12.5859 47.3594 11.8672 48.6562 11.3672C49.9688 10.8516 51.3359 10.5938 52.7578 10.5938C54.2891 10.5938 55.7344 10.8906 57.0938 11.4844C58.4531 12.0625 59.6406 12.8672 60.6562 13.8984C61.6719 14.9141 62.4688 16.1094 63.0469 17.4844C63.6406 18.8438 63.9375 20.2969 63.9375 21.8438V36.1875H57.5391V21.8438C57.5391 21.1875 57.4141 20.5703 57.1641 19.9922C56.9141 19.3984 56.5703 18.8828 56.1328 18.4453C55.6953 18.0078 55.1875 17.6641 54.6094 17.4141C54.0312 17.1641 53.4141 17.0391 52.7578 17.0391C52.0859 17.0391 51.4531 17.1641 50.8594 17.4141C50.2656 17.6641 49.75 18.0078 49.3125 18.4453C48.875 18.8828 48.5312 19.3984 48.2812 19.9922C48.0312 20.5703 47.9062 21.1875 47.9062 21.8438V36.1875ZM74.3672 45.75V39.3047L77.9297 39.3516C78.5547 39.3516 79.1562 39.25 79.7344 39.0469C80.3125 38.8438 80.8438 38.5625 81.3281 38.2031C81.8281 37.8438 82.2656 37.4141 82.6406 36.9141C83.0156 36.4297 83.3203 35.8984 83.5547 35.3203C82.8516 35.6172 82.1328 35.9141 81.3984 36.2109C80.6797 36.5078 79.9531 36.6562 79.2188 36.6562C77.6719 36.6562 76.2188 36.3828 74.8594 35.8359C73.5 35.2891 72.3047 34.5156 71.2734 33.5156C70.2578 32.5 69.4531 31.2734 68.8594 29.8359C68.2812 28.3828 67.9922 26.7578 67.9922 24.9609V11.0859H74.3672V24.9609C74.3672 25.8516 74.4922 26.6328 74.7422 27.3047C75.0078 27.9609 75.3594 28.5156 75.7969 28.9688C76.2344 29.4062 76.7422 29.7344 77.3203 29.9531C77.9141 30.1719 78.5469 30.2812 79.2188 30.2812C79.875 30.2812 80.4922 30.1328 81.0703 29.8359C81.6641 29.5234 82.1797 29.1172 82.6172 28.6172C83.0547 28.1172 83.3984 27.5547 83.6484 26.9297C83.8984 26.2891 84.0234 25.6328 84.0234 24.9609V11.0859H90.4688V33.0234C90.4531 34.7891 90.1094 36.4453 89.4375 37.9922C88.7656 39.5391 87.8438 40.8906 86.6719 42.0469C85.5156 43.2031 84.1641 44.1172 82.6172 44.7891C81.0703 45.4609 79.4141 45.7969 77.6484 45.7969L74.3672 45.75ZM102.914 4.26562C102.914 4.85937 102.797 5.41406 102.562 5.92969C102.344 6.44531 102.039 6.89844 101.648 7.28906C101.258 7.66406 100.797 7.96875 100.266 8.20312C99.75 8.42188 99.1953 8.53125 98.6016 8.53125C98.0078 8.53125 97.4453 8.42188 96.9141 8.20312C96.3984 7.96875 95.9453 7.66406 95.5547 7.28906C95.1797 6.89844 94.875 6.44531 94.6406 5.92969C94.4219 5.41406 94.3125 4.85937 94.3125 4.26562C94.3125 3.6875 94.4219 3.14062 94.6406 2.625C94.875 2.09375 95.1797 1.64062 95.5547 1.26562C95.9453 0.875 96.3984 0.570312 96.9141 0.351562C97.4453 0.117188 98.0078 0 98.6016 0C99.1953 0 99.75 0.117188 100.266 0.351562C100.797 0.570312 101.258 0.875 101.648 1.26562C102.039 1.64062 102.344 2.09375 102.562 2.625C102.797 3.14062 102.914 3.6875 102.914 4.26562ZM101.812 36.1875H95.3672V11.0859H101.812V36.1875ZM113.109 36.1875H106.711V11.0859H108.258L110.367 13.5234C111.398 12.5859 112.562 11.8672 113.859 11.3672C115.172 10.8516 116.539 10.5938 117.961 10.5938C119.492 10.5938 120.938 10.8906 122.297 11.4844C123.656 12.0625 124.844 12.8672 125.859 13.8984C126.875 14.9141 127.672 16.1094 128.25 17.4844C128.844 18.8438 129.141 20.2969 129.141 21.8438V36.1875H122.742V21.8438C122.742 21.1875 122.617 20.5703 122.367 19.9922C122.117 19.3984 121.773 18.8828 121.336 18.4453C120.898 18.0078 120.391 17.6641 119.812 17.4141C119.234 17.1641 118.617 17.0391 117.961 17.0391C117.289 17.0391 116.656 17.1641 116.062 17.4141C115.469 17.6641 114.953 18.0078 114.516 18.4453C114.078 18.8828 113.734 19.3984 113.484 19.9922C113.234 20.5703 113.109 21.1875 113.109 21.8438V36.1875ZM174.586 32.7891C173.023 34.1172 171.281 35.1406 169.359 35.8594C167.438 36.5625 165.438 36.9141 163.359 36.9141C161.766 36.9141 160.227 36.7031 158.742 36.2812C157.273 35.875 155.898 35.2969 154.617 34.5469C153.336 33.7812 152.164 32.875 151.102 31.8281C150.039 30.7656 149.133 29.5938 148.383 28.3125C147.633 27.0156 147.047 25.625 146.625 24.1406C146.219 22.6562 146.016 21.1172 146.016 19.5234C146.016 17.9297 146.219 16.3984 146.625 14.9297C147.047 13.4609 147.633 12.0859 148.383 10.8047C149.133 9.50781 150.039 8.33594 151.102 7.28906C152.164 6.22656 153.336 5.32031 154.617 4.57031C155.898 3.82031 157.273 3.24219 158.742 2.83594C160.227 2.41406 161.766 2.20312 163.359 2.20312C165.438 2.20312 167.438 2.5625 169.359 3.28125C171.281 3.98438 173.023 5 174.586 6.32812L171.07 12.1875C170.055 11.1562 168.883 10.3516 167.555 9.77344C166.227 9.17969 164.828 8.88281 163.359 8.88281C161.891 8.88281 160.508 9.16406 159.211 9.72656C157.93 10.2891 156.805 11.0547 155.836 12.0234C154.867 12.9766 154.102 14.1016 153.539 15.3984C152.977 16.6797 152.695 18.0547 152.695 19.5234C152.695 21.0078 152.977 22.3984 153.539 23.6953C154.102 24.9922 154.867 26.125 155.836 27.0938C156.805 28.0625 157.93 28.8281 159.211 29.3906C160.508 29.9531 161.891 30.2344 163.359 30.2344C164.203 30.2344 165.023 30.1328 165.82 29.9297C166.617 29.7266 167.375 29.4453 168.094 29.0859V19.5234H174.586V32.7891ZM189.07 30.0469C189.32 30.125 189.57 30.1797 189.82 30.2109C190.07 30.2266 190.32 30.2344 190.57 30.2344C191.195 30.2344 191.797 30.1484 192.375 29.9766C192.953 29.8047 193.492 29.5625 193.992 29.25C194.508 28.9219 194.961 28.5312 195.352 28.0781C195.758 27.6094 196.086 27.0938 196.336 26.5312L201.023 31.2422C200.43 32.0859 199.742 32.8438 198.961 33.5156C198.195 34.1875 197.359 34.7578 196.453 35.2266C195.562 35.6953 194.617 36.0469 193.617 36.2812C192.633 36.5312 191.617 36.6562 190.57 36.6562C188.805 36.6562 187.141 36.3281 185.578 35.6719C184.031 35.0156 182.672 34.1016 181.5 32.9297C180.344 31.7578 179.43 30.3672 178.758 28.7578C178.086 27.1328 177.75 25.3516 177.75 23.4141C177.75 21.4297 178.086 19.6172 178.758 17.9766C179.43 16.3359 180.344 14.9375 181.5 13.7812C182.672 12.625 184.031 11.7266 185.578 11.0859C187.141 10.4453 188.805 10.125 190.57 10.125C191.617 10.125 192.641 10.25 193.641 10.5C194.641 10.75 195.586 11.1094 196.477 11.5781C197.383 12.0469 198.227 12.625 199.008 13.3125C199.789 13.9844 200.477 14.7422 201.07 15.5859L189.07 30.0469ZM192.352 16.8516C192.055 16.7422 191.758 16.6719 191.461 16.6406C191.18 16.6094 190.883 16.5938 190.57 16.5938C189.695 16.5938 188.867 16.7578 188.086 17.0859C187.32 17.3984 186.648 17.8516 186.07 18.4453C185.508 19.0391 185.062 19.7578 184.734 20.6016C184.406 21.4297 184.242 22.3672 184.242 23.4141C184.242 23.6484 184.25 23.9141 184.266 24.2109C184.297 24.5078 184.336 24.8125 184.383 25.125C184.445 25.4219 184.516 25.7109 184.594 25.9922C184.672 26.2734 184.773 26.5234 184.898 26.7422L192.352 16.8516ZM210.703 36.1875H204.305V11.0859H205.852L207.961 13.5234C208.992 12.5859 210.156 11.8672 211.453 11.3672C212.766 10.8516 214.133 10.5938 215.555 10.5938C217.086 10.5938 218.531 10.8906 219.891 11.4844C221.25 12.0625 222.438 12.8672 223.453 13.8984C224.469 14.9141 225.266 16.1094 225.844 17.4844C226.438 18.8438 226.734 20.2969 226.734 21.8438V36.1875H220.336V21.8438C220.336 21.1875 220.211 20.5703 219.961 19.9922C219.711 19.3984 219.367 18.8828 218.93 18.4453C218.492 18.0078 217.984 17.6641 217.406 17.4141C216.828 17.1641 216.211 17.0391 215.555 17.0391C214.883 17.0391 214.25 17.1641 213.656 17.4141C213.062 17.6641 212.547 18.0078 212.109 18.4453C211.672 18.8828 211.328 19.3984 211.078 19.9922C210.828 20.5703 210.703 21.1875 210.703 21.8438V36.1875ZM241.289 30.0469C241.539 30.125 241.789 30.1797 242.039 30.2109C242.289 30.2266 242.539 30.2344 242.789 30.2344C243.414 30.2344 244.016 30.1484 244.594 29.9766C245.172 29.8047 245.711 29.5625 246.211 29.25C246.727 28.9219 247.18 28.5312 247.57 28.0781C247.977 27.6094 248.305 27.0938 248.555 26.5312L253.242 31.2422C252.648 32.0859 251.961 32.8438 251.18 33.5156C250.414 34.1875 249.578 34.7578 248.672 35.2266C247.781 35.6953 246.836 36.0469 245.836 36.2812C244.852 36.5312 243.836 36.6562 242.789 36.6562C241.023 36.6562 239.359 36.3281 237.797 35.6719C236.25 35.0156 234.891 34.1016 233.719 32.9297C232.562 31.7578 231.648 30.3672 230.977 28.7578C230.305 27.1328 229.969 25.3516 229.969 23.4141C229.969 21.4297 230.305 19.6172 230.977 17.9766C231.648 16.3359 232.562 14.9375 233.719 13.7812C234.891 12.625 236.25 11.7266 237.797 11.0859C239.359 10.4453 241.023 10.125 242.789 10.125C243.836 10.125 244.859 10.25 245.859 10.5C246.859 10.75 247.805 11.1094 248.695 11.5781C249.602 12.0469 250.445 12.625 251.227 13.3125C252.008 13.9844 252.695 14.7422 253.289 15.5859L241.289 30.0469ZM244.57 16.8516C244.273 16.7422 243.977 16.6719 243.68 16.6406C243.398 16.6094 243.102 16.5938 242.789 16.5938C241.914 16.5938 241.086 16.7578 240.305 17.0859C239.539 17.3984 238.867 17.8516 238.289 18.4453C237.727 19.0391 237.281 19.7578 236.953 20.6016C236.625 21.4297 236.461 22.3672 236.461 23.4141C236.461 23.6484 236.469 23.9141 236.484 24.2109C236.516 24.5078 236.555 24.8125 236.602 25.125C236.664 25.4219 236.734 25.7109 236.812 25.9922C236.891 26.2734 236.992 26.5234 237.117 26.7422L244.57 16.8516ZM262.922 36.1875H256.523V11.0859H258.07L260.18 14.0625C261.211 13.125 262.383 12.4062 263.695 11.9062C265.008 11.3906 266.367 11.1328 267.773 11.1328H273.422V17.5078H267.773C267.102 17.5078 266.469 17.6328 265.875 17.8828C265.281 18.1328 264.766 18.4766 264.328 18.9141C263.891 19.3516 263.547 19.8672 263.297 20.4609C263.047 21.0547 262.922 21.6875 262.922 22.3594V36.1875ZM300.234 36.1875H298.688L296.203 32.7422C295.594 33.2891 294.945 33.8047 294.258 34.2891C293.586 34.7578 292.875 35.1719 292.125 35.5312C291.375 35.875 290.602 36.1484 289.805 36.3516C289.023 36.5547 288.227 36.6562 287.414 36.6562C285.648 36.6562 283.984 36.3594 282.422 35.7656C280.875 35.1719 279.516 34.3125 278.344 33.1875C277.188 32.0469 276.273 30.6562 275.602 29.0156C274.93 27.375 274.594 25.5078 274.594 23.4141C274.594 21.4609 274.93 19.6719 275.602 18.0469C276.273 16.4062 277.188 15 278.344 13.8281C279.516 12.6562 280.875 11.75 282.422 11.1094C283.984 10.4531 285.648 10.125 287.414 10.125C288.227 10.125 289.031 10.2266 289.828 10.4297C290.625 10.6328 291.398 10.9141 292.148 11.2734C292.898 11.6328 293.609 12.0547 294.281 12.5391C294.969 13.0234 295.609 13.5469 296.203 14.1094L298.688 11.1328H300.234V36.1875ZM293.789 23.4141C293.789 22.5391 293.617 21.6953 293.273 20.8828C292.945 20.0547 292.492 19.3281 291.914 18.7031C291.336 18.0625 290.656 17.5547 289.875 17.1797C289.109 16.7891 288.289 16.5938 287.414 16.5938C286.539 16.5938 285.711 16.7422 284.93 17.0391C284.164 17.3359 283.492 17.7734 282.914 18.3516C282.352 18.9297 281.906 19.6484 281.578 20.5078C281.25 21.3516 281.086 22.3203 281.086 23.4141C281.086 24.5078 281.25 25.4844 281.578 26.3438C281.906 27.1875 282.352 27.8984 282.914 28.4766C283.492 29.0547 284.164 29.4922 284.93 29.7891C285.711 30.0859 286.539 30.2344 287.414 30.2344C288.289 30.2344 289.109 30.0469 289.875 29.6719C290.656 29.2812 291.336 28.7734 291.914 28.1484C292.492 27.5078 292.945 26.7812 293.273 25.9688C293.617 25.1406 293.789 24.2891 293.789 23.4141ZM317.719 36.1875C316.172 36.1875 314.719 35.8984 313.359 35.3203C312 34.7266 310.805 33.9219 309.773 32.9062C308.758 31.875 307.953 30.6797 307.359 29.3203C306.781 27.9609 306.492 26.5078 306.492 24.9609V17.5078H303.375V11.1328H306.492V1.10156H312.867V11.1328H322.57V17.5078H312.867V24.9609C312.867 25.6328 312.992 26.2656 313.242 26.8594C313.492 27.4375 313.836 27.9453 314.273 28.3828C314.711 28.8203 315.227 29.1719 315.82 29.4375C316.414 29.6875 317.047 29.8125 317.719 29.8125H322.57V36.1875H317.719ZM350.438 23.4141C350.438 25.2891 350.102 27.0391 349.43 28.6641C348.758 30.2734 347.844 31.6719 346.688 32.8594C345.531 34.0312 344.172 34.9609 342.609 35.6484C341.062 36.3203 339.398 36.6562 337.617 36.6562C335.852 36.6562 334.188 36.3203 332.625 35.6484C331.078 34.9609 329.719 34.0312 328.547 32.8594C327.391 31.6719 326.477 30.2734 325.805 28.6641C325.133 27.0391 324.797 25.2891 324.797 23.4141C324.797 21.5078 325.133 19.7422 325.805 18.1172C326.477 16.4922 327.391 15.0938 328.547 13.9219C329.719 12.7344 331.078 11.8047 332.625 11.1328C334.188 10.4609 335.852 10.125 337.617 10.125C339.398 10.125 341.062 10.4453 342.609 11.0859C344.172 11.7109 345.531 12.6094 346.688 13.7812C347.844 14.9375 348.758 16.3359 349.43 17.9766C350.102 19.6016 350.438 21.4141 350.438 23.4141ZM343.992 23.4141C343.992 22.3828 343.82 21.4531 343.477 20.625C343.148 19.7812 342.695 19.0625 342.117 18.4688C341.539 17.8594 340.859 17.3984 340.078 17.0859C339.312 16.7578 338.492 16.5938 337.617 16.5938C336.742 16.5938 335.914 16.7578 335.133 17.0859C334.367 17.3984 333.695 17.8594 333.117 18.4688C332.555 19.0625 332.109 19.7812 331.781 20.625C331.453 21.4531 331.289 22.3828 331.289 23.4141C331.289 24.3828 331.453 25.2812 331.781 26.1094C332.109 26.9375 332.555 27.6562 333.117 28.2656C333.695 28.875 334.367 29.3594 335.133 29.7188C335.914 30.0625 336.742 30.2344 337.617 30.2344C338.492 30.2344 339.312 30.0703 340.078 29.7422C340.859 29.4141 341.539 28.9531 342.117 28.3594C342.695 27.7656 343.148 27.0469 343.477 26.2031C343.82 25.3594 343.992 24.4297 343.992 23.4141ZM360.375 36.1875H353.977V11.0859H355.523L357.633 14.0625C358.664 13.125 359.836 12.4062 361.148 11.9062C362.461 11.3906 363.82 11.1328 365.227 11.1328H370.875V17.5078H365.227C364.555 17.5078 363.922 17.6328 363.328 17.8828C362.734 18.1328 362.219 18.4766 361.781 18.9141C361.344 19.3516 361 19.8672 360.75 20.4609C360.5 21.0547 360.375 21.6875 360.375 22.3594V36.1875Z" fill="url(#paint0_linear_899_40)"/>
<defs>
<linearGradient id="paint0_linear_899_40" x1="-3.11719" y1="19.1875" x2="371.883" y2="19.1875" gradientUnits="userSpaceOnUse">
<stop stop-color="#366CBF"/>
<stop offset="0.5" stop-color="#2B7FFF"/>
<stop offset="0.716346" stop-color="#4A88E6"/>
<stop offset="1" stop-color="#2B69C8"/>
</linearGradient>
</defs>
</svg>
